<svg width="1200" height="300" viewBox="0 0 1200 300" fill="none" xmlns="http://www.w3.org/2000/svg">
<rect width="1200" height="300" fill="#101010"/>
<g opacity="0.48" filter="url(#filter0_f_136_66)">
<path d="M536 86H536.088C536.183 86.0902 536.153 86.1308 536 86.122V86Z" fill="white"/>
<path d="M605.299 106.563C604.059 104.043 605.809 101.647 608.145 100.755C609.007 100.426 609.869 100.231 610.731 100.169C610.838 100.162 610.842 100.177 610.742 100.216C608.934 100.922 607.166 102.329 606.67 104.299C606.315 105.704 606.644 107.185 607.274 108.466C607.427 108.777 607.605 109.052 607.806 109.289C607.864 109.358 607.858 109.365 607.787 109.31C607.47 109.067 607.152 108.808 606.833 108.536C606.186 107.983 605.675 107.326 605.299 106.563Z" fill="white"/>
<path d="M609.278 109.888C606.858 106.6 609.088 103.101 612.492 102.042C615.083 101.234 617.623 101.662 619.905 103.066C620.082 103.174 620.241 103.297 620.385 103.434C620.386 103.436 620.387 103.438 620.387 103.44C620.388 103.443 620.387 103.445 620.385 103.447C620.384 103.449 620.382 103.451 620.379 103.451C620.377 103.452 620.374 103.452 620.372 103.451C620.306 103.415 620.232 103.384 620.151 103.357C617.855 102.594 615.565 102.611 613.281 103.409C611.096 104.172 609.569 106.222 609.772 108.585C609.84 109.364 610.01 110.397 610.442 111.062C610.472 111.109 610.467 111.114 610.425 111.078C610.015 110.713 609.59 110.311 609.278 109.888Z" fill="white"/>
<path d="M598.972 117.922C601.203 118.147 603.373 117.942 605.481 117.307C607.243 116.777 608.86 115.927 610.334 114.758C610.364 114.733 610.377 114.74 610.371 114.779C610.311 115.207 610.254 115.631 610.2 116.053C610.062 117.133 609.785 118.176 609.368 119.179C608.867 120.384 608.291 121.425 607.639 122.3C607.037 123.108 606.135 124.106 605.199 124.857C604.033 125.792 602.679 126.55 601.308 127.139C600.747 127.38 600.101 127.571 599.491 127.772C599.281 127.842 599.1 127.882 598.95 127.894C598.94 127.894 598.936 127.899 598.937 127.909L598.938 127.939C598.938 127.95 598.942 127.96 598.949 127.967C598.956 127.975 598.966 127.979 598.976 127.98C599.906 128.053 600.741 128.063 601.481 128.01C603.989 127.833 606.244 126.809 608.246 125.33C608.251 125.326 608.253 125.326 608.253 125.332C608.253 125.339 608.25 125.341 608.244 125.338C608.238 125.334 608.233 125.334 608.23 125.338C607.678 126.092 607.271 126.623 607.01 126.932C605.593 128.605 603.891 129.907 601.905 130.838C601.181 131.177 600.456 131.388 599.69 131.607C599.664 131.615 599.649 131.605 599.644 131.579C599.572 131.21 599.471 130.846 599.341 130.486C598.665 128.613 597.739 126.916 596.562 125.394C596.496 125.31 596.451 125.244 596.425 125.196C596.399 125.145 596.395 125.146 596.413 125.198C596.415 125.205 596.42 125.212 596.426 125.218C596.433 125.224 596.438 125.231 596.441 125.239C596.887 126.301 597.133 127.055 597.475 128.207C598.211 130.682 598.662 133.274 598.718 135.746C598.74 136.668 598.65 137.754 598.45 139.004C598.203 140.542 597.653 141.962 596.799 143.263C596.131 144.281 595.392 145.209 594.581 146.047C594.498 146.133 594.492 146.128 594.564 146.032C595.192 145.188 595.689 144.253 596.056 143.227C596.934 140.773 597.29 138.245 597.206 135.657C597.179 134.833 597.148 134.009 597.114 133.187C597.114 133.18 597.11 133.177 597.103 133.177H597.081C597.06 133.177 597.049 133.188 597.048 133.209C596.98 136.496 596.278 139.638 594.943 142.636C594.508 143.61 593.974 144.495 593.34 145.288C593.264 145.384 593.255 145.379 593.315 145.272C593.405 145.109 593.486 144.945 593.542 144.762C593.856 143.72 594.027 142.697 594.054 141.691C594.158 137.966 593.207 134.409 591.725 131.022C590.652 128.566 589.247 126.318 587.511 124.278C587.5 124.264 587.488 124.258 587.474 124.259C587.448 124.259 587.441 124.271 587.454 124.293C589.209 127.412 590.3 130.751 590.725 134.309C590.835 135.231 590.824 136.154 590.921 137.076C590.93 137.164 590.906 137.174 590.85 137.105C590.737 136.968 590.602 136.826 590.447 136.68C589.842 136.112 589.241 135.538 588.644 134.96C588.62 134.937 588.572 134.914 588.541 134.904C588.514 134.897 588.49 134.883 588.469 134.863C588.131 134.54 587.809 134.202 587.504 133.846C587.333 133.647 587.153 133.456 586.963 133.274C585.85 132.207 584.623 130.902 583.594 129.585C583.02 128.851 582.442 128.129 581.86 127.42C581.786 127.33 581.776 127.337 581.828 127.441C581.968 127.72 582.112 128.009 582.259 128.309C582.605 129.018 582.931 129.848 583.284 130.516C584.183 132.221 585.22 133.832 586.706 135.429C586.761 135.487 586.862 135.541 586.904 135.596C586.926 135.626 586.921 135.632 586.887 135.615C586.184 135.26 585.502 134.854 584.842 134.399C584.285 134.015 583.665 133.496 583.083 133.043C583.014 132.988 583.003 132.999 583.049 133.074C583.636 134.019 584.355 134.867 585.206 135.617C586.219 136.51 587.414 137.151 588.682 137.607C588.947 137.702 589.212 137.802 589.475 137.905C589.504 137.917 589.52 137.938 589.522 137.97C589.694 140.269 589.19 142.866 587.727 144.708C587.387 145.136 587.01 145.471 586.597 145.713C586.473 145.785 586.482 145.808 586.622 145.781C587.907 145.536 588.922 145.125 590.1 144.366C590.133 144.344 590.147 144.353 590.141 144.392C589.792 146.835 588.502 149.135 586.472 150.57C586.137 150.807 585.81 150.986 585.491 151.109C585.349 151.164 585.354 151.195 585.506 151.203C586.638 151.261 587.861 151.213 588.935 150.973C591.691 150.357 593.705 148.631 595.457 146.504C595.458 146.503 595.458 146.503 595.459 146.503C595.459 146.503 595.46 146.503 595.461 146.503C595.461 146.504 595.461 146.504 595.462 146.505C595.462 146.505 595.462 146.506 595.462 146.507C595.332 147.146 595.243 147.87 595.06 148.427C594.837 149.102 594.508 149.775 594.011 150.288C593.987 150.313 593.991 150.319 594.023 150.305C596.404 149.273 598.024 147.276 598.565 144.739C598.566 144.737 598.568 144.734 598.569 144.732C598.571 144.73 598.574 144.728 598.577 144.727C598.579 144.727 598.582 144.726 598.585 144.727C598.587 144.727 598.59 144.729 598.592 144.731C599.468 145.476 600.112 146.312 600.603 147.39C601.44 149.228 601.83 151.721 602.185 153.183C602.693 155.272 603.366 157.378 604.203 159.502C604.417 160.043 604.656 160.581 604.921 161.116C605.528 162.342 606.114 163.457 606.954 164.534C606.972 164.556 606.994 164.562 607.021 164.552C607.1 164.523 607.173 164.488 607.242 164.447C608.307 163.802 609.287 163.101 610.18 162.346C611.151 161.524 612.169 160.602 613.04 159.646C615.288 157.174 617.361 154.351 618.754 151.299C618.756 151.293 618.757 151.287 618.755 151.281C618.753 151.275 618.749 151.27 618.744 151.268L618.724 151.257C618.717 151.254 618.712 151.255 618.708 151.261C617.979 152.375 617.03 153.304 615.993 154.15C613.924 155.838 611.382 156.869 608.729 157.212C607.583 157.359 606.444 157.438 605.312 157.448C605.31 157.448 605.309 157.448 605.308 157.446C605.306 157.445 605.306 157.444 605.306 157.442C605.305 157.441 605.306 157.439 605.307 157.438C605.308 157.437 605.309 157.437 605.311 157.437C605.691 157.389 606.074 157.316 606.46 157.22C608.055 156.823 609.48 156.271 610.734 155.564C611.369 155.206 612.027 154.754 612.71 154.208C617.322 150.513 619.215 144.7 619.16 138.951C619.159 138.851 619.19 138.788 619.252 138.763C620.853 138.126 622.465 137.518 624.034 136.801C624.41 136.629 624.837 136.473 625.235 136.295C625.276 136.276 625.305 136.254 625.322 136.229C625.324 136.225 625.326 136.22 625.327 136.215C625.327 136.21 625.327 136.205 625.325 136.201C625.323 136.196 625.321 136.192 625.317 136.189C625.314 136.186 625.309 136.183 625.305 136.182C623.268 135.601 621.198 135.182 619.096 134.925C619.064 134.921 619.046 134.904 619.043 134.873C619.022 134.71 619.035 134.532 619.019 134.388C618.867 132.941 618.661 131.502 618.4 130.072C618.13 128.592 617.74 127.071 617.384 125.58C617.067 124.245 616.526 122.604 615.763 120.655C614.655 117.824 613.088 115.028 610.979 112.82C610.973 112.814 610.969 112.806 610.967 112.797C610.965 112.789 610.965 112.78 610.967 112.772C610.969 112.763 610.973 112.756 610.979 112.749C610.985 112.743 610.993 112.739 611.001 112.736C611.493 112.58 611.981 112.457 612.465 112.367C613.908 112.101 616.007 112.721 617.081 113.756C617.086 113.761 617.091 113.764 617.098 113.765C617.104 113.766 617.11 113.765 617.116 113.762C617.122 113.759 617.127 113.755 617.13 113.749C617.132 113.743 617.133 113.737 617.132 113.73C617.074 113.267 616.132 112.297 615.773 111.993C614.565 110.968 612.748 110.502 611.26 111.22C611.188 111.255 611.15 111.233 611.147 111.152C611.086 109.509 611.798 107.947 613.265 107.072C615.714 105.611 618.573 105.988 621.182 106.994C626.46 109.029 630.772 114.015 630.073 119.99C629.978 120.801 629.784 121.503 629.447 122.219C629.277 122.582 629.114 122.946 628.959 123.314C628.956 123.32 628.951 123.322 628.944 123.32L628.921 123.311C628.913 123.308 628.906 123.301 628.902 123.293C628.898 123.284 628.898 123.275 628.901 123.266C630.101 119.772 628.589 115.695 626.217 113.098C625.162 111.944 623.968 110.947 622.635 110.108C622.527 110.04 622.417 109.979 622.306 109.925C622.278 109.911 622.275 109.914 622.3 109.935C622.779 110.333 623.209 110.786 623.589 111.294C626.039 114.566 626.795 118.774 626.26 122.762C626.252 122.822 626.253 122.871 626.262 122.911C626.276 122.969 626.257 122.982 626.207 122.95L623.898 121.494C623.895 121.493 623.892 121.493 623.89 121.495L623.877 121.514C623.869 121.525 623.87 121.535 623.881 121.544C624.707 122.261 625.289 122.74 625.626 122.982C627.591 124.395 631.214 126.612 633.671 125.204C635.67 124.06 635.015 121.721 633.402 120.661C633.358 120.633 633.361 120.627 633.411 120.643C633.593 120.705 633.785 120.767 633.986 120.83C635.299 121.237 636.051 122.098 636.243 123.414C636.61 125.931 634.431 127.947 632.088 128.259C630.444 128.479 628.967 128.151 627.469 127.414C626.138 126.76 624.978 126.019 623.991 125.192C622.666 124.082 621.782 123.315 621.341 122.891C620.822 122.393 620.325 121.928 619.85 121.494C619.58 121.249 619.558 121.27 619.781 121.558C619.888 121.695 620.079 121.877 620.208 122.042C621.821 124.115 623.012 125.623 624.44 127.318C625.884 129.03 627.453 130.624 629.117 132.198C631.378 134.338 633.832 136.072 636.82 136.974C639.068 137.652 641.512 137.601 643.727 136.73C643.961 136.638 644.168 136.523 644.348 136.384C644.411 136.335 644.416 136.341 644.363 136.401C642.129 138.956 639.098 140.269 635.735 139.525C631.819 138.658 628.782 135.734 626.321 132.669C625.418 131.545 624.501 130.45 623.624 129.313C623.505 129.16 623.347 129.006 623.219 128.841C623.218 128.841 623.218 128.84 623.218 128.84C623.217 128.84 623.217 128.84 623.216 128.839C623.216 128.839 623.216 128.839 623.216 128.839C623.215 128.839 623.215 128.839 623.215 128.839C623.219 128.844 623.22 128.847 623.218 128.849C623.216 128.851 623.216 128.853 623.217 128.854C623.48 129.237 623.785 129.758 624.133 130.417C625.412 132.841 626.529 135.198 627.484 137.49C627.877 138.436 628.29 139.577 628.69 140.621C629.519 142.775 630.207 144.975 630.769 147.215C631.198 148.929 631.474 150.668 631.594 152.431C631.628 152.92 631.641 153.745 631.634 154.906C631.623 156.705 631.447 158.467 631.095 160.232C630.903 161.191 630.524 162.129 630.187 163.046C629.719 164.319 629.043 165.608 628.158 166.911C627.634 167.683 627.216 168.252 626.904 168.616C625.817 169.883 624.782 170.903 623.799 171.676C622.572 172.643 621.494 173.407 620.567 173.971C619.238 174.778 617.533 175.628 615.531 176.496C612.736 177.708 609.819 178.553 606.953 179.566C606.217 179.826 605.477 180.079 604.736 180.323C601.414 181.418 598.237 182.67 595.204 184.078C591.985 185.573 588.855 187.482 586.176 189.768C584.305 191.364 582.759 193.213 581.255 195.402C581.081 195.656 580.945 195.923 580.825 196.194C580.781 196.295 580.767 196.292 580.784 196.183C581.015 194.751 581.332 193.332 581.736 191.927C582.315 189.913 583.298 187.962 584.431 186.203C584.565 185.996 584.753 185.734 584.998 185.416C585.261 185.075 585.519 184.697 585.779 184.385C587.37 182.474 589.176 180.755 591.192 179.298C591.806 178.855 592.414 178.405 593.052 178.001C594.809 176.888 596.031 176.219 597.947 175.271C599.925 174.293 601.978 173.433 604.027 172.613C604.146 172.565 604.261 172.512 604.374 172.454C604.438 172.421 604.445 172.431 604.396 172.483C603.374 173.575 602.431 174.707 601.351 175.749C599.928 177.121 598.813 178.149 597.28 179.234C596.077 180.086 594.883 180.891 593.696 181.648C593.57 181.729 593.576 181.741 593.715 181.684C594.762 181.26 595.819 180.823 596.888 180.374C600.65 178.795 604.258 176.73 607.589 174.38C608.558 173.697 609.597 172.872 610.595 172.11C612.743 170.471 614.726 168.549 616.532 166.544C617.301 165.69 618.046 164.695 618.78 163.754C619.079 163.371 619.359 162.984 619.622 162.595C620.375 161.477 621.122 160.361 621.693 159.137C622.336 157.758 622.919 156.353 623.44 154.924C623.609 154.46 623.777 153.996 623.944 153.533C623.951 153.516 623.946 153.503 623.928 153.495L623.907 153.486C623.904 153.484 623.901 153.486 623.898 153.489C623.382 154.439 622.891 155.405 622.28 156.301C621.331 157.692 620.353 159.126 619.238 160.384C616.364 163.628 612.993 166.251 609.126 168.254C607.228 169.238 605.301 170.087 602.884 171.017C601.322 171.619 599.79 172.276 598.239 172.897C593.795 174.675 589.365 176.694 585.887 180.086C585.023 180.93 584.249 181.753 583.547 182.69C583.198 183.156 582.861 183.629 582.535 184.111C580.738 186.771 579.58 190.087 579.368 193.183C579.268 194.652 579.306 196.103 579.481 197.534C579.49 197.605 579.479 197.608 579.449 197.544C577.176 192.653 575.584 186.973 576.485 181.558C576.496 181.492 576.528 181.41 576.591 181.361C577.476 180.686 578.346 180.2 579.203 179.902C580.267 179.533 581.586 179.349 582.672 179.738C582.679 179.74 582.686 179.741 582.693 179.74C582.7 179.738 582.707 179.735 582.713 179.731C582.718 179.727 582.722 179.721 582.725 179.714C582.727 179.708 582.728 179.701 582.727 179.694C582.696 179.477 582.643 179.281 582.567 179.103C581.483 176.577 579.136 175.298 576.442 176.29C576.228 176.369 576.043 176.462 575.887 176.57C575.817 176.619 575.806 176.608 575.855 176.538C576.686 175.348 577.492 174.276 578.682 173.413C581.138 171.632 584.256 172.364 585.231 175.326C585.475 176.07 585.511 176.825 585.338 177.59C585.337 177.599 585.338 177.6 585.344 177.593C586.427 176.053 587.415 174.423 588.179 172.7C588.629 171.683 589.05 170.449 589.899 169.686C590.682 168.982 591.824 168.733 592.62 167.993C593.885 166.814 594.134 164.786 594.102 163.171C594.071 161.587 593.632 155.205 591.603 154.799C590.997 154.678 590.308 155.077 589.803 155.388C588.526 156.175 587.222 156.916 585.892 157.612C585.282 157.931 584.607 158.252 583.933 158.4C583.331 158.533 582.732 158.362 582.379 157.85C582.295 157.728 582.214 157.519 582.138 157.222C581.887 156.246 581.49 155.514 580.678 154.87C580.198 154.489 579.736 154.185 579.293 153.958C579.032 153.824 579.103 153.24 579.156 152.841C579.161 152.809 579.151 152.782 579.128 152.761C578.986 152.618 578.777 152.617 578.643 152.572C578.209 152.419 577.793 152.334 577.462 151.95C577.444 151.929 577.435 151.901 577.437 151.873C577.488 151.345 577.323 150.877 576.943 150.469C576.233 149.708 575.478 149.287 574.651 148.745C574.336 148.539 574.102 148.266 573.947 147.926C573.94 147.91 573.939 147.892 573.944 147.875C573.949 147.858 573.961 147.843 573.976 147.834C575.344 146.99 576.517 146.06 576.936 144.439C577.25 143.222 577.056 141.796 576.756 140.519C576.666 140.137 576.64 139.913 576.324 139.653C574.41 138.074 573.096 136.167 572.083 133.915C571.933 133.581 571.823 133.271 571.754 132.986C571.75 132.968 571.743 132.958 571.733 132.953C571.726 132.95 571.718 132.95 571.71 132.952C571.705 132.953 571.7 132.956 571.696 132.96C571.693 132.965 571.691 132.97 571.692 132.975C571.768 135.425 572.074 137.61 572.987 139.84C573.506 141.11 574.157 142.115 574.983 143.15C575.215 143.442 575.472 143.687 575.753 143.883C575.819 143.93 575.813 143.942 575.735 143.919C574.698 143.616 573.708 143.129 572.768 142.58C570.583 141.304 568.914 139.143 568.057 136.79C567.468 135.173 567.123 133.353 567.153 131.612C567.183 129.814 567.515 128.116 568.027 126.397C568.124 126.069 568.231 125.801 568.347 125.594C568.465 125.385 568.435 125.361 568.257 125.523C567.481 126.226 566.775 127.032 566.139 127.939C564.483 130.299 564.2 133.054 564.749 135.83C564.814 136.158 564.926 136.477 565.037 136.795C565.038 136.798 565.037 136.799 565.035 136.8L565.014 136.808C565 136.814 564.99 136.81 564.984 136.797C564.26 135.405 563.821 133.852 563.646 132.297C563.256 128.836 564.589 125.695 566.807 123.115C568.228 121.46 569.788 119.965 571.299 118.396C571.506 118.182 571.727 117.936 571.961 117.661C573.354 116.028 574.443 114.692 575.958 113.382C577.578 111.98 579.27 110.806 581.034 109.861C581.663 109.524 582.539 109.121 583.662 108.651C585.487 107.888 587.398 107.326 589.393 106.963C591.447 106.59 593.5 106.555 595.558 106.66C596.694 106.719 598.034 106.941 599.578 107.329C602.856 108.151 605.894 109.785 608.469 111.963C608.647 112.115 608.816 112.275 608.974 112.444C608.994 112.465 608.994 112.486 608.976 112.508C607.799 113.915 606.378 115.119 604.766 115.996C602.92 116.998 601.107 117.526 598.971 117.911C598.944 117.915 598.944 117.919 598.972 117.922ZM578.879 134.196C578.879 134.193 578.88 134.19 578.882 134.187C578.884 134.184 578.887 134.182 578.89 134.181C578.893 134.179 578.896 134.179 578.899 134.179C578.902 134.179 578.906 134.18 578.908 134.182C579.572 134.676 580.265 135.124 580.986 135.528C581.723 135.939 582.237 136.085 583.14 136.337C583.549 136.452 583.966 136.515 584.391 136.528C584.407 136.528 584.409 136.523 584.395 136.514C584.388 136.509 584.38 136.506 584.371 136.504C584.35 136.5 584.336 136.497 584.331 136.495C581.271 135.13 578.603 132.662 577.432 129.488C577.074 128.519 576.822 127.622 576.699 126.603C576.698 126.597 576.695 126.594 576.689 126.593C576.679 126.592 576.671 126.593 576.665 126.595C576.658 126.597 576.654 126.605 576.652 126.619C576.479 128.261 576.461 130.001 576.551 131.65C576.641 133.309 576.812 134.961 577.064 136.605C577.196 137.466 577.388 138.304 577.639 139.117C577.661 139.189 577.684 139.189 577.71 139.119C578.286 137.528 578.845 135.915 578.879 134.196ZM579.968 143.085C580.435 143.043 580.895 142.961 581.347 142.84C583.304 142.316 584.603 140.802 585.541 139.095C585.581 139.022 585.566 139.007 585.495 139.053C584.153 139.909 582.707 140.812 581.162 141.286C581.135 141.294 581.111 141.313 581.095 141.337C580.68 141.998 580.511 142.66 579.74 143.005C579.627 143.056 579.633 143.086 579.76 143.095C579.792 143.098 579.862 143.095 579.968 143.085ZM623.305 166.007C623.362 165.909 623.464 165.809 623.509 165.73C624.87 163.342 625.711 160.455 625.747 157.692C625.75 157.382 625.779 157.09 625.807 156.809C625.822 156.654 625.803 156.65 625.748 156.796C624.943 158.934 623.997 160.938 622.767 162.867C622.152 163.831 621.727 164.474 621.49 164.794C619.061 168.1 616.169 171.269 612.847 173.696C612.126 174.223 611.389 174.755 610.636 175.292C610.565 175.343 610.569 175.351 610.65 175.317C611.684 174.88 612.743 174.439 613.827 173.993C614.787 173.598 616.032 172.947 617.563 172.04C618.504 171.482 619.473 170.912 620.343 170.311C622.031 169.144 623.432 167.922 624.837 166.675C626.142 165.517 627.281 164.192 628.273 162.758C630.135 160.069 631.067 156.785 630.904 153.502C630.848 152.37 630.801 151.55 630.763 151.044C630.763 151.04 630.76 151.039 630.756 151.039C630.754 151.039 630.752 151.039 630.749 151.039C630.74 151.039 630.735 151.043 630.733 151.052C630.714 151.165 630.701 151.337 630.692 151.569C630.665 152.266 630.517 153.233 630.334 153.992C629.629 156.914 628.41 159.636 626.702 162.108C626.14 162.92 625.725 163.48 625.457 163.788C624.76 164.59 624.222 165.163 623.841 165.509C623.616 165.714 623.443 165.883 623.319 166.017C623.285 166.054 623.28 166.051 623.305 166.007Z" fill="white"/>
<path d="M613.559 127.459C613.34 129.229 612.689 130.853 611.836 132.469C611.439 133.22 610.884 133.89 610.322 134.539C610.298 134.568 610.267 134.582 610.23 134.582C608.341 134.575 606.46 134.64 604.587 134.776C603.353 134.866 602.119 134.947 600.884 135.02C600.775 135.027 600.678 135.021 600.592 135.003C600.587 135.002 600.582 135 600.578 134.996C600.574 134.992 600.572 134.987 600.571 134.981C600.57 134.976 600.571 134.97 600.574 134.965C600.576 134.96 600.58 134.956 600.585 134.953C602.849 133.775 604.992 132.198 606.671 130.262C607.789 128.974 608.695 127.744 609.39 126.572C609.701 126.046 610.105 125.224 610.603 124.106C611.499 122.097 612.091 119.957 612.162 117.751C612.164 117.677 612.179 117.674 612.206 117.744C612.324 118.045 612.446 118.37 612.57 118.716C613.532 121.389 613.92 124.534 613.559 127.459Z" fill="white"/>
<path d="M610.191 137.714C610.414 137.654 610.41 137.629 610.18 137.639C609.08 137.688 607.932 137.742 606.864 137.861C604.571 138.118 602.372 138.712 600.139 139.187C600.134 139.188 600.129 139.188 600.125 139.186C600.12 139.185 600.116 139.182 600.113 139.178C600.111 139.174 600.109 139.17 600.108 139.165C600.108 139.16 600.109 139.155 600.111 139.151L601.123 137.097C601.136 137.07 601.155 137.05 601.182 137.036C601.244 137.003 601.31 136.98 601.38 136.968C602.307 136.791 603.24 136.651 604.178 136.549C606.631 136.279 609.091 136.132 611.558 136.108C613.98 136.085 615.571 136.099 616.332 136.15C617.868 136.252 619.425 136.46 620.979 136.602C620.982 136.603 620.983 136.602 620.983 136.6C620.983 136.599 620.983 136.599 620.983 136.598C620.983 136.596 620.982 136.596 620.98 136.596C619.044 137.28 617.086 137.884 615.14 138.537C611.085 139.9 608.173 140.803 604.904 141.707C603.352 142.137 601.78 142.464 600.187 142.687C599.803 142.741 599.418 142.741 599.042 142.732C598.956 142.73 598.948 142.703 599.016 142.652C599.214 142.502 599.436 142.366 599.682 142.241C601.915 141.11 604.18 140.045 606.474 139.046C606.821 138.895 607.2 138.745 607.613 138.597C608.477 138.286 609.338 137.942 610.191 137.714Z" fill="white"/>
<path d="M634.305 168.566C635.319 167.384 636.111 165.957 636.622 164.453C637.762 161.109 637.828 157.743 636.823 154.354C636.292 152.566 635.605 150.844 634.717 149.204C633.529 147.012 632.278 144.996 631.039 142.695C630.511 141.714 630.026 140.666 629.536 139.649C629.475 139.521 629.492 139.51 629.586 139.616C631.742 142.034 633.954 144.614 635.606 146.971C636.755 148.61 637.65 150.307 638.291 152.061C639.285 154.778 639.598 157.929 638.949 160.795C638.767 161.598 638.417 162.593 637.898 163.778C637.079 165.65 635.818 167.193 634.328 168.572C634.323 168.576 634.316 168.577 634.307 168.574C634.303 168.572 634.303 168.57 634.305 168.566Z" fill="white"/>
<path d="M606.828 144.818C606.362 145.101 605.753 145.373 605.194 145.402C604.066 145.461 603.078 145.28 602.16 144.59C602.034 144.496 601.906 144.407 601.775 144.324C601.773 144.323 601.771 144.321 601.77 144.318C601.769 144.316 601.769 144.313 601.769 144.311C601.77 144.308 601.771 144.305 601.773 144.303C601.775 144.301 601.777 144.3 601.78 144.299C604.104 143.702 606.421 143.066 608.669 142.225C608.696 142.215 608.705 142.223 608.694 142.25C608.546 142.618 608.338 143 608.07 143.396C607.872 143.688 607.432 144.375 606.751 145.458C606.59 145.716 606.272 146.125 605.797 146.683C605.746 146.744 605.684 146.761 605.623 146.8C605.61 146.809 605.599 146.821 605.592 146.836C605.586 146.851 605.584 146.867 605.586 146.883C605.588 146.899 605.595 146.914 605.606 146.926C605.617 146.938 605.631 146.947 605.646 146.951C606.034 147.06 606.38 147.241 606.684 147.493C607.753 148.38 608.536 149.476 609.034 150.78C609.036 150.788 609.034 150.788 609.029 150.783C607.385 149.154 605.037 148.284 602.75 148.526C602.721 148.529 602.707 148.516 602.708 148.487C602.745 147.798 602.671 147.12 602.486 146.455C602.475 146.418 602.489 146.404 602.527 146.414C604.119 146.834 605.813 146.021 606.843 144.836C606.875 144.798 606.87 144.792 606.828 144.818Z" fill="white"/>
<path d="M608.057 183.43C608.437 182.578 608.956 181.798 609.443 181.015C609.47 180.971 609.509 180.942 609.558 180.928C611.7 180.298 613.882 179.521 615.876 178.499C615.939 178.468 615.947 178.478 615.9 178.53C615.16 179.367 614.433 180.212 613.718 181.066C612.108 182.987 610.216 185.207 610.203 187.723C610.198 188.72 610.625 189.846 611.572 190.309C611.75 190.397 611.952 190.388 612.156 190.43C612.194 190.438 612.195 190.447 612.156 190.457C609.927 191.026 608.143 189.778 607.581 187.658C607.212 186.27 607.48 184.724 608.057 183.43Z" fill="white"/>
</g>
<path d="M536 86H536.088C536.183 86.0902 536.153 86.1308 536 86.122V86Z" fill="white"/>
<path d="M605.299 106.563C604.059 104.043 605.809 101.647 608.145 100.755C609.007 100.426 609.869 100.231 610.731 100.169C610.838 100.162 610.842 100.177 610.742 100.216C608.934 100.922 607.166 102.329 606.67 104.299C606.315 105.704 606.644 107.185 607.274 108.466C607.427 108.777 607.605 109.052 607.806 109.289C607.864 109.358 607.858 109.365 607.787 109.31C607.47 109.067 607.152 108.808 606.833 108.536C606.186 107.983 605.675 107.326 605.299 106.563Z" fill="white"/>
<path d="M609.278 109.888C606.858 106.6 609.088 103.101 612.492 102.042C615.083 101.234 617.623 101.662 619.905 103.066C620.082 103.174 620.241 103.297 620.385 103.434C620.386 103.436 620.387 103.438 620.387 103.44C620.388 103.443 620.387 103.445 620.385 103.447C620.384 103.449 620.382 103.451 620.379 103.451C620.377 103.452 620.374 103.452 620.372 103.451C620.306 103.415 620.232 103.384 620.151 103.357C617.855 102.594 615.565 102.611 613.281 103.409C611.096 104.172 609.569 106.222 609.772 108.585C609.84 109.364 610.01 110.397 610.442 111.062C610.472 111.109 610.467 111.114 610.425 111.078C610.015 110.713 609.59 110.311 609.278 109.888Z" fill="white"/>
<path d="M598.972 117.922C601.203 118.147 603.373 117.942 605.481 117.307C607.243 116.777 608.86 115.927 610.334 114.758C610.364 114.733 610.377 114.74 610.371 114.779C610.311 115.207 610.254 115.631 610.2 116.053C610.062 117.133 609.785 118.176 609.368 119.179C608.867 120.384 608.291 121.425 607.639 122.3C607.037 123.108 606.135 124.106 605.199 124.857C604.033 125.792 602.679 126.55 601.308 127.139C600.747 127.38 600.101 127.571 599.491 127.772C599.281 127.842 599.1 127.882 598.95 127.894C598.94 127.894 598.936 127.899 598.937 127.909L598.938 127.939C598.938 127.95 598.942 127.96 598.949 127.967C598.956 127.975 598.966 127.979 598.976 127.98C599.906 128.053 600.741 128.063 601.481 128.01C603.989 127.833 606.244 126.809 608.246 125.33C608.251 125.326 608.253 125.326 608.253 125.332C608.253 125.339 608.25 125.341 608.244 125.338C608.238 125.334 608.233 125.334 608.23 125.338C607.678 126.092 607.271 126.623 607.01 126.932C605.593 128.605 603.891 129.907 601.905 130.838C601.181 131.177 600.456 131.388 599.69 131.607C599.664 131.615 599.649 131.605 599.644 131.579C599.572 131.21 599.471 130.846 599.341 130.486C598.665 128.613 597.739 126.916 596.562 125.394C596.496 125.31 596.451 125.244 596.425 125.196C596.399 125.145 596.395 125.146 596.413 125.198C596.415 125.205 596.42 125.212 596.426 125.218C596.433 125.224 596.438 125.231 596.441 125.239C596.887 126.301 597.133 127.055 597.475 128.207C598.211 130.682 598.662 133.274 598.718 135.746C598.74 136.668 598.65 137.754 598.45 139.004C598.203 140.542 597.653 141.962 596.799 143.263C596.131 144.281 595.392 145.209 594.581 146.047C594.498 146.133 594.492 146.128 594.564 146.032C595.192 145.188 595.689 144.253 596.056 143.227C596.934 140.773 597.29 138.245 597.206 135.657C597.179 134.833 597.148 134.009 597.114 133.187C597.114 133.18 597.11 133.177 597.103 133.177H597.081C597.06 133.177 597.049 133.188 597.048 133.209C596.98 136.496 596.278 139.638 594.943 142.636C594.508 143.61 593.974 144.495 593.34 145.288C593.264 145.384 593.255 145.379 593.315 145.272C593.405 145.109 593.486 144.945 593.542 144.762C593.856 143.72 594.027 142.697 594.054 141.691C594.158 137.966 593.207 134.409 591.725 131.022C590.652 128.566 589.247 126.318 587.511 124.278C587.5 124.264 587.488 124.258 587.474 124.259C587.448 124.259 587.441 124.271 587.454 124.293C589.209 127.412 590.3 130.751 590.725 134.309C590.835 135.231 590.824 136.154 590.921 137.076C590.93 137.164 590.906 137.174 590.85 137.105C590.737 136.968 590.602 136.826 590.447 136.68C589.842 136.112 589.241 135.538 588.644 134.96C588.62 134.937 588.572 134.914 588.541 134.904C588.514 134.897 588.49 134.883 588.469 134.863C588.131 134.54 587.809 134.202 587.504 133.846C587.333 133.647 587.153 133.456 586.963 133.274C585.85 132.207 584.623 130.902 583.594 129.585C583.02 128.851 582.442 128.129 581.86 127.42C581.786 127.33 581.776 127.337 581.828 127.441C581.968 127.72 582.112 128.009 582.259 128.309C582.605 129.018 582.931 129.848 583.284 130.516C584.183 132.221 585.22 133.832 586.706 135.429C586.761 135.487 586.862 135.541 586.904 135.596C586.926 135.626 586.921 135.632 586.887 135.615C586.184 135.26 585.502 134.854 584.842 134.399C584.285 134.015 583.665 133.496 583.083 133.043C583.014 132.988 583.003 132.999 583.049 133.074C583.636 134.019 584.355 134.867 585.206 135.617C586.219 136.51 587.414 137.151 588.682 137.607C588.947 137.702 589.212 137.802 589.475 137.905C589.504 137.917 589.52 137.938 589.522 137.97C589.694 140.269 589.19 142.866 587.727 144.708C587.387 145.136 587.01 145.471 586.597 145.713C586.473 145.785 586.482 145.808 586.622 145.781C587.907 145.536 588.922 145.125 590.1 144.366C590.133 144.344 590.147 144.353 590.141 144.392C589.792 146.835 588.502 149.135 586.472 150.57C586.137 150.807 585.81 150.986 585.491 151.109C585.349 151.164 585.354 151.195 585.506 151.203C586.638 151.261 587.861 151.213 588.935 150.973C591.691 150.357 593.705 148.631 595.457 146.504C595.458 146.503 595.458 146.503 595.459 146.503C595.459 146.503 595.46 146.503 595.461 146.503C595.461 146.504 595.461 146.504 595.462 146.505C595.462 146.505 595.462 146.506 595.462 146.507C595.332 147.146 595.243 147.87 595.06 148.427C594.837 149.102 594.508 149.775 594.011 150.288C593.987 150.313 593.991 150.319 594.023 150.305C596.404 149.273 598.024 147.276 598.565 144.739C598.566 144.737 598.568 144.734 598.569 144.732C598.571 144.73 598.574 144.728 598.577 144.727C598.579 144.727 598.582 144.726 598.585 144.727C598.587 144.727 598.59 144.729 598.592 144.731C599.468 145.476 600.112 146.312 600.603 147.39C601.44 149.228 601.83 151.721 602.185 153.183C602.693 155.272 603.366 157.378 604.203 159.502C604.417 160.043 604.656 160.581 604.921 161.116C605.528 162.342 606.114 163.457 606.954 164.534C606.972 164.556 606.994 164.562 607.021 164.552C607.1 164.523 607.173 164.488 607.242 164.447C608.307 163.802 609.287 163.101 610.18 162.346C611.151 161.524 612.169 160.602 613.04 159.646C615.288 157.174 617.361 154.351 618.754 151.299C618.756 151.293 618.757 151.287 618.755 151.281C618.753 151.275 618.749 151.27 618.744 151.268L618.724 151.257C618.717 151.254 618.712 151.255 618.708 151.261C617.979 152.375 617.03 153.304 615.993 154.15C613.924 155.838 611.382 156.869 608.729 157.212C607.583 157.359 606.444 157.438 605.312 157.448C605.31 157.448 605.309 157.448 605.308 157.446C605.306 157.445 605.306 157.444 605.306 157.442C605.305 157.441 605.306 157.439 605.307 157.438C605.308 157.437 605.309 157.437 605.311 157.437C605.691 157.389 606.074 157.316 606.46 157.22C608.055 156.823 609.48 156.271 610.734 155.564C611.369 155.206 612.027 154.754 612.71 154.208C617.322 150.513 619.215 144.7 619.16 138.951C619.159 138.851 619.19 138.788 619.252 138.763C620.853 138.126 622.465 137.518 624.034 136.801C624.41 136.629 624.837 136.473 625.235 136.295C625.276 136.276 625.305 136.254 625.322 136.229C625.324 136.225 625.326 136.22 625.327 136.215C625.327 136.21 625.327 136.205 625.325 136.201C625.323 136.196 625.321 136.192 625.317 136.189C625.314 136.186 625.309 136.183 625.305 136.182C623.268 135.601 621.198 135.182 619.096 134.925C619.064 134.921 619.046 134.904 619.043 134.873C619.022 134.71 619.035 134.532 619.019 134.388C618.867 132.941 618.661 131.502 618.4 130.072C618.13 128.592 617.74 127.071 617.384 125.58C617.067 124.245 616.526 122.604 615.763 120.655C614.655 117.824 613.088 115.028 610.979 112.82C610.973 112.814 610.969 112.806 610.967 112.797C610.965 112.789 610.965 112.78 610.967 112.772C610.969 112.763 610.973 112.756 610.979 112.749C610.985 112.743 610.993 112.739 611.001 112.736C611.493 112.58 611.981 112.457 612.465 112.367C613.908 112.101 616.007 112.721 617.081 113.756C617.086 113.761 617.091 113.764 617.098 113.765C617.104 113.766 617.11 113.765 617.116 113.762C617.122 113.759 617.127 113.755 617.13 113.749C617.132 113.743 617.133 113.737 617.132 113.73C617.074 113.267 616.132 112.297 615.773 111.993C614.565 110.968 612.748 110.502 611.26 111.22C611.188 111.255 611.15 111.233 611.147 111.152C611.086 109.509 611.798 107.947 613.265 107.072C615.714 105.611 618.573 105.988 621.182 106.994C626.46 109.029 630.772 114.015 630.073 119.99C629.978 120.801 629.784 121.503 629.447 122.219C629.277 122.582 629.114 122.946 628.959 123.314C628.956 123.32 628.951 123.322 628.944 123.32L628.921 123.311C628.913 123.308 628.906 123.301 628.902 123.293C628.898 123.284 628.898 123.275 628.901 123.266C630.101 119.772 628.589 115.695 626.217 113.098C625.162 111.944 623.968 110.947 622.635 110.108C622.527 110.04 622.417 109.979 622.306 109.925C622.278 109.911 622.275 109.914 622.3 109.935C622.779 110.333 623.209 110.786 623.589 111.294C626.039 114.566 626.795 118.774 626.26 122.762C626.252 122.822 626.253 122.871 626.262 122.911C626.276 122.969 626.257 122.982 626.207 122.95L623.898 121.494C623.895 121.493 623.892 121.493 623.89 121.495L623.877 121.514C623.869 121.525 623.87 121.535 623.881 121.544C624.707 122.261 625.289 122.74 625.626 122.982C627.591 124.395 631.214 126.612 633.671 125.204C635.67 124.06 635.015 121.721 633.402 120.661C633.358 120.633 633.361 120.627 633.411 120.643C633.593 120.705 633.785 120.767 633.986 120.83C635.299 121.237 636.051 122.098 636.243 123.414C636.61 125.931 634.431 127.947 632.088 128.259C630.444 128.479 628.967 128.151 627.469 127.414C626.138 126.76 624.978 126.019 623.991 125.192C622.666 124.082 621.782 123.315 621.341 122.891C620.822 122.393 620.325 121.928 619.85 121.494C619.58 121.249 619.558 121.27 619.781 121.558C619.888 121.695 620.079 121.877 620.208 122.042C621.821 124.115 623.012 125.623 624.44 127.318C625.884 129.03 627.453 130.624 629.117 132.198C631.378 134.338 633.832 136.072 636.82 136.974C639.068 137.652 641.512 137.601 643.727 136.73C643.961 136.638 644.168 136.523 644.348 136.384C644.411 136.335 644.416 136.341 644.363 136.401C642.129 138.956 639.098 140.269 635.735 139.525C631.819 138.658 628.782 135.734 626.321 132.669C625.418 131.545 624.501 130.45 623.624 129.313C623.505 129.16 623.347 129.006 623.219 128.841C623.218 128.841 623.218 128.84 623.218 128.84C623.217 128.84 623.217 128.84 623.216 128.839C623.216 128.839 623.216 128.839 623.216 128.839C623.215 128.839 623.215 128.839 623.215 128.839C623.219 128.844 623.22 128.847 623.218 128.849C623.216 128.851 623.216 128.853 623.217 128.854C623.48 129.237 623.785 129.758 624.133 130.417C625.412 132.841 626.529 135.198 627.484 137.49C627.877 138.436 628.29 139.577 628.69 140.621C629.519 142.775 630.207 144.975 630.769 147.215C631.198 148.929 631.474 150.668 631.594 152.431C631.628 152.92 631.641 153.745 631.634 154.906C631.623 156.705 631.447 158.467 631.095 160.232C630.903 161.191 630.524 162.129 630.187 163.046C629.719 164.319 629.043 165.608 628.158 166.911C627.634 167.683 627.216 168.252 626.904 168.616C625.817 169.883 624.782 170.903 623.799 171.676C622.572 172.643 621.494 173.407 620.567 173.971C619.238 174.778 617.533 175.628 615.531 176.496C612.736 177.708 609.819 178.553 606.953 179.566C606.217 179.826 605.477 180.079 604.736 180.323C601.414 181.418 598.237 182.67 595.204 184.078C591.985 185.573 588.855 187.482 586.176 189.768C584.305 191.364 582.759 193.213 581.255 195.402C581.081 195.656 580.945 195.923 580.825 196.194C580.781 196.295 580.767 196.292 580.784 196.183C581.015 194.751 581.332 193.332 581.736 191.927C582.315 189.913 583.298 187.962 584.431 186.203C584.565 185.996 584.753 185.734 584.998 185.416C585.261 185.075 585.519 184.697 585.779 184.385C587.37 182.474 589.176 180.755 591.192 179.298C591.806 178.855 592.414 178.405 593.052 178.001C594.809 176.888 596.031 176.219 597.947 175.271C599.925 174.293 601.978 173.433 604.027 172.613C604.146 172.565 604.261 172.512 604.374 172.454C604.438 172.421 604.445 172.431 604.396 172.483C603.374 173.575 602.431 174.707 601.351 175.749C599.928 177.121 598.813 178.149 597.28 179.234C596.077 180.086 594.883 180.891 593.696 181.648C593.57 181.729 593.576 181.741 593.715 181.684C594.762 181.26 595.819 180.823 596.888 180.374C600.65 178.795 604.258 176.73 607.589 174.38C608.558 173.697 609.597 172.872 610.595 172.11C612.743 170.471 614.726 168.549 616.532 166.544C617.301 165.69 618.046 164.695 618.78 163.754C619.079 163.371 619.359 162.984 619.622 162.595C620.375 161.477 621.122 160.361 621.693 159.137C622.336 157.758 622.919 156.353 623.44 154.924C623.609 154.46 623.777 153.996 623.944 153.533C623.951 153.516 623.946 153.503 623.928 153.495L623.907 153.486C623.904 153.484 623.901 153.486 623.898 153.489C623.382 154.439 622.891 155.405 622.28 156.301C621.331 157.692 620.353 159.126 619.238 160.384C616.364 163.628 612.993 166.251 609.126 168.254C607.228 169.238 605.301 170.087 602.884 171.017C601.322 171.619 599.79 172.276 598.239 172.897C593.795 174.675 589.365 176.694 585.887 180.086C585.023 180.93 584.249 181.753 583.547 182.69C583.198 183.156 582.861 183.629 582.535 184.111C580.738 186.771 579.58 190.087 579.368 193.183C579.268 194.652 579.306 196.103 579.481 197.534C579.49 197.605 579.479 197.608 579.449 197.544C577.176 192.653 575.584 186.973 576.485 181.558C576.496 181.492 576.528 181.41 576.591 181.361C577.476 180.686 578.346 180.2 579.203 179.902C580.267 179.533 581.586 179.349 582.672 179.738C582.679 179.74 582.686 179.741 582.693 179.74C582.7 179.738 582.707 179.735 582.713 179.731C582.718 179.727 582.722 179.721 582.725 179.714C582.727 179.708 582.728 179.701 582.727 179.694C582.696 179.477 582.643 179.281 582.567 179.103C581.483 176.577 579.136 175.298 576.442 176.29C576.228 176.369 576.043 176.462 575.887 176.57C575.817 176.619 575.806 176.608 575.855 176.538C576.686 175.348 577.492 174.276 578.682 173.413C581.138 171.632 584.256 172.364 585.231 175.326C585.475 176.07 585.511 176.825 585.338 177.59C585.337 177.599 585.338 177.6 585.344 177.593C586.427 176.053 587.415 174.423 588.179 172.7C588.629 171.683 589.05 170.449 589.899 169.686C590.682 168.982 591.824 168.733 592.62 167.993C593.885 166.814 594.134 164.786 594.102 163.171C594.071 161.587 593.632 155.205 591.603 154.799C590.997 154.678 590.308 155.077 589.803 155.388C588.526 156.175 587.222 156.916 585.892 157.612C585.282 157.931 584.607 158.252 583.933 158.4C583.331 158.533 582.732 158.362 582.379 157.85C582.295 157.728 582.214 157.519 582.138 157.222C581.887 156.246 581.49 155.514 580.678 154.87C580.198 154.489 579.736 154.185 579.293 153.958C579.032 153.824 579.103 153.24 579.156 152.841C579.161 152.809 579.151 152.782 579.128 152.761C578.986 152.618 578.777 152.617 578.643 152.572C578.209 152.419 577.793 152.334 577.462 151.95C577.444 151.929 577.435 151.901 577.437 151.873C577.488 151.345 577.323 150.877 576.943 150.469C576.233 149.708 575.478 149.287 574.651 148.745C574.336 148.539 574.102 148.266 573.947 147.926C573.94 147.91 573.939 147.892 573.944 147.875C573.949 147.858 573.961 147.843 573.976 147.834C575.344 146.99 576.517 146.06 576.936 144.439C577.25 143.222 577.056 141.796 576.756 140.519C576.666 140.137 576.64 139.913 576.324 139.653C574.41 138.074 573.096 136.167 572.083 133.915C571.933 133.581 571.823 133.271 571.754 132.986C571.75 132.968 571.743 132.958 571.733 132.953C571.726 132.95 571.718 132.95 571.71 132.952C571.705 132.953 571.7 132.956 571.696 132.96C571.693 132.965 571.691 132.97 571.692 132.975C571.768 135.425 572.074 137.61 572.987 139.84C573.506 141.11 574.157 142.115 574.983 143.15C575.215 143.442 575.472 143.687 575.753 143.883C575.819 143.93 575.813 143.942 575.735 143.919C574.698 143.616 573.708 143.129 572.768 142.58C570.583 141.304 568.914 139.143 568.057 136.79C567.468 135.173 567.123 133.353 567.153 131.612C567.183 129.814 567.515 128.116 568.027 126.397C568.124 126.069 568.231 125.801 568.347 125.594C568.465 125.385 568.435 125.361 568.257 125.523C567.481 126.226 566.775 127.032 566.139 127.939C564.483 130.299 564.2 133.054 564.749 135.83C564.814 136.158 564.926 136.477 565.037 136.795C565.038 136.798 565.037 136.799 565.035 136.8L565.014 136.808C565 136.814 564.99 136.81 564.984 136.797C564.26 135.405 563.821 133.852 563.646 132.297C563.256 128.836 564.589 125.695 566.807 123.115C568.228 121.46 569.788 119.965 571.299 118.396C571.506 118.182 571.727 117.936 571.961 117.661C573.354 116.028 574.443 114.692 575.958 113.382C577.578 111.98 579.27 110.806 581.034 109.861C581.663 109.524 582.539 109.121 583.662 108.651C585.487 107.888 587.398 107.326 589.393 106.963C591.447 106.59 593.5 106.555 595.558 106.66C596.694 106.719 598.034 106.941 599.578 107.329C602.856 108.151 605.894 109.785 608.469 111.963C608.647 112.115 608.816 112.275 608.974 112.444C608.994 112.465 608.994 112.486 608.976 112.508C607.799 113.915 606.378 115.119 604.766 115.996C602.92 116.998 601.107 117.526 598.971 117.911C598.944 117.915 598.944 117.919 598.972 117.922ZM578.879 134.196C578.879 134.193 578.88 134.19 578.882 134.187C578.884 134.184 578.887 134.182 578.89 134.181C578.893 134.179 578.896 134.179 578.899 134.179C578.902 134.179 578.906 134.18 578.908 134.182C579.572 134.676 580.265 135.124 580.986 135.528C581.723 135.939 582.237 136.085 583.14 136.337C583.549 136.452 583.966 136.515 584.391 136.528C584.407 136.528 584.409 136.523 584.395 136.514C584.388 136.509 584.38 136.506 584.371 136.504C584.35 136.5 584.336 136.497 584.331 136.495C581.271 135.13 578.603 132.662 577.432 129.488C577.074 128.519 576.822 127.622 576.699 126.603C576.698 126.597 576.695 126.594 576.689 126.593C576.679 126.592 576.671 126.593 576.665 126.595C576.658 126.597 576.654 126.605 576.652 126.619C576.479 128.261 576.461 130.001 576.551 131.65C576.641 133.309 576.812 134.961 577.064 136.605C577.196 137.466 577.388 138.304 577.639 139.117C577.661 139.189 577.684 139.189 577.71 139.119C578.286 137.528 578.845 135.915 578.879 134.196ZM579.968 143.085C580.435 143.043 580.895 142.961 581.347 142.84C583.304 142.316 584.603 140.802 585.541 139.095C585.581 139.022 585.566 139.007 585.495 139.053C584.153 139.909 582.707 140.812 581.162 141.286C581.135 141.294 581.111 141.313 581.095 141.337C580.68 141.998 580.511 142.66 579.74 143.005C579.627 143.056 579.633 143.086 579.76 143.095C579.792 143.098 579.862 143.095 579.968 143.085ZM623.305 166.007C623.362 165.909 623.464 165.809 623.509 165.73C624.87 163.342 625.711 160.455 625.747 157.692C625.75 157.382 625.779 157.09 625.807 156.809C625.822 156.654 625.803 156.65 625.748 156.796C624.943 158.934 623.997 160.938 622.767 162.867C622.152 163.831 621.727 164.474 621.49 164.794C619.061 168.1 616.169 171.269 612.847 173.696C612.126 174.223 611.389 174.755 610.636 175.292C610.565 175.343 610.569 175.351 610.65 175.317C611.684 174.88 612.743 174.439 613.827 173.993C614.787 173.598 616.032 172.947 617.563 172.04C618.504 171.482 619.473 170.912 620.343 170.311C622.031 169.144 623.432 167.922 624.837 166.675C626.142 165.517 627.281 164.192 628.273 162.758C630.135 160.069 631.067 156.785 630.904 153.502C630.848 152.37 630.801 151.55 630.763 151.044C630.763 151.04 630.76 151.039 630.756 151.039C630.754 151.039 630.752 151.039 630.749 151.039C630.74 151.039 630.735 151.043 630.733 151.052C630.714 151.165 630.701 151.337 630.692 151.569C630.665 152.266 630.517 153.233 630.334 153.992C629.629 156.914 628.41 159.636 626.702 162.108C626.14 162.92 625.725 163.48 625.457 163.788C624.76 164.59 624.222 165.163 623.841 165.509C623.616 165.714 623.443 165.883 623.319 166.017C623.285 166.054 623.28 166.051 623.305 166.007Z" fill="white"/>
<path d="M613.559 127.459C613.34 129.229 612.689 130.853 611.836 132.469C611.439 133.22 610.884 133.89 610.322 134.539C610.298 134.568 610.267 134.582 610.23 134.582C608.341 134.575 606.46 134.64 604.587 134.776C603.353 134.866 602.119 134.947 600.884 135.02C600.775 135.027 600.678 135.021 600.592 135.003C600.587 135.002 600.582 135 600.578 134.996C600.574 134.992 600.572 134.987 600.571 134.981C600.57 134.976 600.571 134.97 600.574 134.965C600.576 134.96 600.58 134.956 600.585 134.953C602.849 133.775 604.992 132.198 606.671 130.262C607.789 128.974 608.695 127.744 609.39 126.572C609.701 126.046 610.105 125.224 610.603 124.106C611.499 122.097 612.091 119.957 612.162 117.751C612.164 117.677 612.179 117.674 612.206 117.744C612.324 118.045 612.446 118.37 612.57 118.716C613.532 121.389 613.92 124.534 613.559 127.459Z" fill="white"/>
<path d="M610.191 137.714C610.414 137.654 610.41 137.629 610.18 137.639C609.08 137.688 607.932 137.742 606.864 137.861C604.571 138.118 602.372 138.712 600.139 139.187C600.134 139.188 600.129 139.188 600.125 139.186C600.12 139.185 600.116 139.182 600.113 139.178C600.111 139.174 600.109 139.17 600.108 139.165C600.108 139.16 600.109 139.155 600.111 139.151L601.123 137.097C601.136 137.07 601.155 137.05 601.182 137.036C601.244 137.003 601.31 136.98 601.38 136.968C602.307 136.791 603.24 136.651 604.178 136.549C606.631 136.279 609.091 136.132 611.558 136.108C613.98 136.085 615.571 136.099 616.332 136.15C617.868 136.252 619.425 136.46 620.979 136.602C620.982 136.603 620.983 136.602 620.983 136.6C620.983 136.599 620.983 136.599 620.983 136.598C620.983 136.596 620.982 136.596 620.98 136.596C619.044 137.28 617.086 137.884 615.14 138.537C611.085 139.9 608.173 140.803 604.904 141.707C603.352 142.137 601.78 142.464 600.187 142.687C599.803 142.741 599.418 142.741 599.042 142.732C598.956 142.73 598.948 142.703 599.016 142.652C599.214 142.502 599.436 142.366 599.682 142.241C601.915 141.11 604.18 140.045 606.474 139.046C606.821 138.895 607.2 138.745 607.613 138.597C608.477 138.286 609.338 137.942 610.191 137.714Z" fill="white"/>
<path d="M634.305 168.566C635.319 167.384 636.111 165.957 636.622 164.453C637.762 161.109 637.828 157.743 636.823 154.354C636.292 152.566 635.605 150.844 634.717 149.204C633.529 147.012 632.278 144.996 631.039 142.695C630.511 141.714 630.026 140.666 629.536 139.649C629.475 139.521 629.492 139.51 629.586 139.616C631.742 142.034 633.954 144.614 635.606 146.971C636.755 148.61 637.65 150.307 638.291 152.061C639.285 154.778 639.598 157.929 638.949 160.795C638.767 161.598 638.417 162.593 637.898 163.778C637.079 165.65 635.818 167.193 634.328 168.572C634.323 168.576 634.316 168.577 634.307 168.574C634.303 168.572 634.303 168.57 634.305 168.566Z" fill="white"/>
<path d="M606.828 144.818C606.362 145.101 605.753 145.373 605.194 145.402C604.066 145.461 603.078 145.28 602.16 144.59C602.034 144.496 601.906 144.407 601.775 144.324C601.773 144.323 601.771 144.321 601.77 144.318C601.769 144.316 601.769 144.313 601.769 144.311C601.77 144.308 601.771 144.305 601.773 144.303C601.775 144.301 601.777 144.3 601.78 144.299C604.104 143.702 606.421 143.066 608.669 142.225C608.696 142.215 608.705 142.223 608.694 142.25C608.546 142.618 608.338 143 608.07 143.396C607.872 143.688 607.432 144.375 606.751 145.458C606.59 145.716 606.272 146.125 605.797 146.683C605.746 146.744 605.684 146.761 605.623 146.8C605.61 146.809 605.599 146.821 605.592 146.836C605.586 146.851 605.584 146.867 605.586 146.883C605.588 146.899 605.595 146.914 605.606 146.926C605.617 146.938 605.631 146.947 605.646 146.951C606.034 147.06 606.38 147.241 606.684 147.493C607.753 148.38 608.536 149.476 609.034 150.78C609.036 150.788 609.034 150.788 609.029 150.783C607.385 149.154 605.037 148.284 602.75 148.526C602.721 148.529 602.707 148.516 602.708 148.487C602.745 147.798 602.671 147.12 602.486 146.455C602.475 146.418 602.489 146.404 602.527 146.414C604.119 146.834 605.813 146.021 606.843 144.836C606.875 144.798 606.87 144.792 606.828 144.818Z" fill="white"/>
<path d="M608.057 183.43C608.437 182.578 608.956 181.798 609.443 181.015C609.47 180.971 609.509 180.942 609.558 180.928C611.7 180.298 613.882 179.521 615.876 178.499C615.939 178.468 615.947 178.478 615.9 178.53C615.16 179.367 614.433 180.212 613.718 181.066C612.108 182.987 610.216 185.207 610.203 187.723C610.198 188.72 610.625 189.846 611.572 190.309C611.75 190.397 611.952 190.388 612.156 190.43C612.194 190.438 612.195 190.447 612.156 190.457C609.927 191.026 608.143 189.778 607.581 187.658C607.212 186.27 607.48 184.724 608.057 183.43Z" fill="white"/>
<defs>
<filter id="filter0_f_136_66" x="464" y="14" width="272" height="272" filterUnits="userSpaceOnUse" color-interpolation-filters="sRGB">
<feFlood flood-opacity="0" result="BackgroundImageFix"/>
<feBlend mode="normal" in="SourceGraphic" in2="BackgroundImageFix" result="shape"/>
<feGaussianBlur stdDeviation="36" result="effect1_foregroundBlur_136_66"/>
</filter>
</defs>
</svg>
