<svg width="128" height="128" viewBox="0 0 128 128" fill="none" xmlns="http://www.w3.org/2000/svg">
<rect width="128" height="128" rx="32" fill="#101010"/>
<path d="M87.8444 41.6223C83.2401 39.4887 78.3793 37.9751 73.3864 37.12C72.7032 38.3563 72.0849 39.6282 71.5344 40.9305C66.2159 40.1193 60.8073 40.1193 55.4888 40.9305C54.938 39.6284 54.3197 38.3564 53.6368 37.12C48.6407 37.9823 43.7767 39.4995 39.1678 41.6334C30.0178 55.3357 27.5374 68.6976 28.7776 81.8698C34.136 85.877 40.1336 88.9246 46.5098 90.88C47.9454 88.9256 49.2159 86.8521 50.3075 84.6817C48.2341 83.8978 46.2329 82.9307 44.327 81.7917C44.8286 81.4234 45.3192 81.0441 45.7932 80.6759C51.3388 83.3156 57.3916 84.6843 63.5199 84.6843C69.6482 84.6843 75.7009 83.3156 81.2465 80.6759C81.7261 81.072 82.2167 81.4514 82.7127 81.7917C80.8032 82.9327 78.7983 83.9015 76.7211 84.6873C77.8115 86.8567 79.082 88.9283 80.5189 90.88C86.9005 88.9325 92.9027 85.8863 98.2621 81.8754C99.7173 66.5999 95.7762 53.3607 87.8444 41.6223ZM51.8785 73.769C48.4225 73.769 45.5672 70.5944 45.5672 66.6892C45.5672 62.7838 48.3232 59.5814 51.8674 59.5814C55.4116 59.5814 58.2449 62.7838 58.1842 66.6892C58.1236 70.5944 55.4007 73.769 51.8785 73.769ZM75.1612 73.769C71.6997 73.769 68.8555 70.5944 68.8555 66.6892C68.8555 62.7838 71.6115 59.5814 75.1612 59.5814C78.711 59.5814 81.5221 62.7838 81.4615 66.6892C81.4008 70.5944 78.6835 73.769 75.1612 73.769Z" fill="white"/>
</svg>
