<svg width="128" height="128" viewBox="0 0 128 128" fill="none" xmlns="http://www.w3.org/2000/svg">
<g clip-path="url(#clip0_118_38)">
<rect width="128" height="128" rx="32" fill="#101010"/>
<path d="M0 0H0.0883979C0.182689 0.0901658 0.153223 0.130829 0 0.121989V0Z" fill="white"/>
<path d="M69.2994 20.5631C68.0591 18.0428 69.8094 15.6473 72.1449 14.7553C73.0071 14.4259 73.8692 14.2305 74.7314 14.1692C74.8381 14.1616 74.8416 14.1772 74.742 14.2161C72.9343 14.9215 71.1663 16.3288 70.6695 18.2992C70.3151 19.7038 70.6439 21.1845 71.2742 22.4663C71.4274 22.7774 71.6048 23.0518 71.8063 23.2892C71.8641 23.3576 71.8576 23.3647 71.7869 23.3105C71.4698 23.0665 71.1519 22.8084 70.8331 22.5361C70.186 21.9833 69.6748 21.3256 69.2994 20.5631Z" fill="white"/>
<path d="M73.2782 23.8877C70.8578 20.6002 73.0881 17.1014 76.4923 16.0415C79.0833 15.2345 81.6229 15.6623 83.9053 17.0661C84.0816 17.1745 84.2413 17.2971 84.3845 17.4338C84.3862 17.4356 84.3872 17.438 84.3873 17.4404C84.3875 17.4429 84.3867 17.4454 84.3853 17.4474C84.3838 17.4494 84.3817 17.4508 84.3793 17.4514C84.3769 17.452 84.3743 17.4517 84.3721 17.4506C84.3061 17.4152 84.2324 17.384 84.1511 17.3569C81.8551 16.5937 79.565 16.6111 77.2808 17.4091C75.0956 18.1719 73.569 20.2219 73.7723 22.5847C73.8395 23.3644 74.0101 24.3969 74.4424 25.0625C74.4724 25.1091 74.4665 25.1141 74.4247 25.0776C74.0154 24.7134 73.5902 24.3112 73.2782 23.8877Z" fill="white"/>
<path d="M62.972 31.9222C65.2032 32.1468 67.3727 31.9417 69.4807 31.307C71.2428 30.7766 72.8605 29.9268 74.3338 28.7576C74.3644 28.7334 74.3768 28.7405 74.3709 28.7788C74.3108 29.2067 74.2539 29.6313 74.2003 30.0526C74.0624 31.1334 73.7848 32.1757 73.3676 33.1793C72.8672 34.3844 72.2909 35.4246 71.6385 36.2997C71.0374 37.1077 70.1349 38.1057 69.1987 38.8571C68.0328 39.7923 66.6785 40.5499 65.3083 41.1386C64.747 41.3799 64.1008 41.5709 63.4909 41.7724C63.2805 41.842 63.1002 41.8823 62.9499 41.8935C62.9405 41.8941 62.936 41.8991 62.9366 41.9085L62.9375 41.9395C62.9377 41.9499 62.9418 41.9599 62.949 41.9674C62.9562 41.9749 62.966 41.9795 62.9764 41.9801C63.9064 42.0532 64.7411 42.0632 65.4807 42.0102C67.9895 41.8325 70.2445 40.8089 72.2458 39.33C72.2505 39.3259 72.2529 39.3264 72.2529 39.3318C72.2529 39.3388 72.2499 39.3409 72.244 39.3379C72.2376 39.3338 72.2328 39.3338 72.2299 39.3379C71.6777 40.0917 71.2711 40.6229 71.01 40.9318C69.5927 42.6048 67.891 43.9069 65.905 44.8381C65.1811 45.1775 64.4562 45.3879 63.6898 45.6071C63.6639 45.6148 63.6485 45.6053 63.6438 45.5788C63.5719 45.2099 63.4709 44.8457 63.3406 44.4862C62.6653 42.6134 61.7391 40.9161 60.5623 39.3945C60.4963 39.3097 60.4506 39.2436 60.4253 39.1965C60.3987 39.1452 60.3946 39.1458 60.4129 39.1983C60.4152 39.2053 60.4197 39.2118 60.4261 39.2177C60.4326 39.2236 60.4376 39.2307 60.4412 39.2389C60.8867 40.3015 61.1333 41.0555 61.4754 42.2073C62.2109 44.6825 62.6617 47.2743 62.7183 49.7459C62.7395 50.6676 62.6499 51.7537 62.4496 53.0042C62.2032 54.5424 61.6531 55.962 60.7992 57.2632C60.1315 58.281 59.3922 59.2089 58.5813 60.0469C58.4976 60.1329 58.4917 60.1279 58.5636 60.0319C59.1918 59.188 59.6892 58.253 60.0557 57.227C60.9335 54.7731 61.2898 52.2449 61.2058 49.6575C61.1787 48.833 61.148 48.0095 61.1139 47.1868C61.1139 47.1803 61.1103 47.1771 61.1033 47.1771H61.0812C61.0599 47.1771 61.049 47.1877 61.0485 47.2089C60.9801 50.4961 60.2782 53.6383 58.9428 56.6356C58.5085 57.6104 57.9743 58.4946 57.3402 59.2884C57.2636 59.3845 57.255 59.3789 57.3145 59.2716C57.4047 59.109 57.486 58.9455 57.5417 58.7616C57.8558 57.7203 58.0267 56.6966 58.0544 55.6906C58.1578 51.9656 57.2067 48.4093 55.7251 45.0219C54.652 42.5662 53.2473 40.3183 51.5112 38.278C51.5 38.2645 51.4876 38.258 51.4741 38.2586C51.4476 38.2592 51.4408 38.2707 51.4538 38.2931C53.2093 41.4118 54.2999 44.7505 54.7254 48.3094C54.835 49.2305 54.8244 50.1543 54.9207 51.0763C54.9296 51.1641 54.906 51.1738 54.85 51.1055C54.7368 50.9681 54.6025 50.8264 54.4469 50.6803C53.8417 50.1116 53.2406 49.5382 52.6436 48.96C52.6197 48.9371 52.572 48.9141 52.541 48.9043C52.5139 48.8967 52.4901 48.8828 52.4694 48.8628C52.1306 48.5404 51.8088 48.2016 51.5041 47.8462C51.3332 47.647 51.1529 47.4564 50.9631 47.2743C49.8502 46.2073 48.6232 44.9017 47.5943 43.5855C47.0203 42.8506 46.4422 42.1287 45.8599 41.4197C45.7863 41.3295 45.7757 41.3366 45.8281 41.4409C45.9684 41.7197 46.1119 42.009 46.2586 42.309C46.6051 43.0179 46.9313 43.848 47.284 44.5163C48.183 46.2215 49.2199 47.8321 50.7059 49.4285C50.7607 49.4869 50.8624 49.5408 50.9039 49.5956C50.9263 49.6257 50.9207 49.6322 50.8871 49.6151C50.1841 49.2597 49.5022 48.8543 48.8416 48.3987C48.2847 48.0151 47.665 47.4962 47.0834 47.0427C47.0144 46.9885 47.0029 46.9988 47.0489 47.0736C47.6364 48.0195 48.3554 48.8672 49.2058 49.6168C50.2188 50.5097 51.414 51.1505 52.6816 51.6067C52.9474 51.7021 53.2117 51.8017 53.4745 51.9055C53.504 51.9167 53.5199 51.9382 53.5223 51.97C53.6938 54.2692 53.1899 56.8663 51.7269 58.7077C51.3869 59.1361 51.0103 59.4711 50.5972 59.7127C50.4734 59.7852 50.4817 59.8079 50.6219 59.7808C51.9072 59.536 52.922 59.1249 54.1004 58.3656C54.1334 58.3444 54.1469 58.3532 54.141 58.3921C53.7919 60.8345 52.5022 63.1346 50.4717 64.5702C50.1369 64.8065 49.8101 64.9863 49.4913 65.1094C49.3493 65.1642 49.3543 65.1955 49.5063 65.2031C50.6378 65.2606 51.8613 65.2129 52.9353 64.9733C55.6907 64.3572 57.7052 62.6308 59.4573 60.5039C59.4577 60.5035 59.4583 60.5032 59.4588 60.5031C59.4594 60.5031 59.46 60.5032 59.4605 60.5035C59.4611 60.5038 59.4615 60.5043 59.4617 60.5048C59.4619 60.5054 59.4619 60.506 59.4617 60.5066C59.3318 61.1457 59.2434 61.8697 59.0595 62.4274C58.8367 63.1019 58.5079 63.7755 58.0111 64.2882C57.9869 64.313 57.9908 64.3186 58.0226 64.305C60.404 63.2734 62.0244 61.2765 62.5654 58.7395C62.5661 58.7367 62.5675 58.7341 62.5695 58.732C62.5714 58.7299 62.5739 58.7283 62.5765 58.7275C62.5792 58.7266 62.582 58.7264 62.5847 58.727C62.5874 58.7275 62.5899 58.7288 62.5919 58.7306C63.4679 59.4758 64.1123 60.3121 64.6029 61.3897C65.4401 63.2283 65.8299 65.7211 66.1853 67.1832C66.6932 69.2718 67.366 71.378 68.2034 73.5019C68.4167 74.0429 68.656 74.581 68.9212 75.1161C69.5285 76.3421 70.1137 77.4568 70.9543 78.5335C70.972 78.5559 70.9941 78.5621 71.0206 78.5521C71.0996 78.5232 71.1733 78.4881 71.2416 78.4469C72.3071 77.8016 73.2865 77.1012 74.18 76.3457C75.1506 75.5236 76.1689 74.6025 77.0396 73.646C79.2876 71.1735 81.3614 68.351 82.7537 65.2986C82.7563 65.293 82.7568 65.2867 82.755 65.2809C82.7531 65.2752 82.7492 65.2704 82.7439 65.2677L82.7236 65.2571C82.7171 65.2535 82.7118 65.255 82.7077 65.2615C81.9793 66.3753 81.0299 67.3044 79.993 68.1503C77.9236 69.8378 75.3822 70.8694 72.7294 71.2115C71.5831 71.3595 70.444 71.4384 69.3119 71.4484C69.3103 71.4483 69.3088 71.4476 69.3076 71.4464C69.3064 71.4453 69.3057 71.4438 69.3056 71.4423C69.3055 71.4407 69.306 71.4393 69.307 71.4383C69.308 71.4373 69.3095 71.4368 69.311 71.437C69.6911 71.3886 70.0742 71.3164 70.4602 71.2204C72.0555 70.8232 73.4801 70.271 74.7342 69.5638C75.3689 69.2061 76.0275 68.7541 76.7099 68.2078C81.3216 64.5127 83.2151 58.6997 83.1603 52.9512C83.1591 52.851 83.1898 52.7883 83.2522 52.7629C84.8531 52.1256 86.4655 51.5183 88.0337 50.8014C88.4103 50.629 88.8372 50.4734 89.235 50.2948C89.2763 50.276 89.3051 50.2539 89.3216 50.2285C89.3243 50.2245 89.326 50.2199 89.3266 50.2151C89.3272 50.2103 89.3267 50.2054 89.3251 50.2009C89.3234 50.1963 89.3207 50.1922 89.3172 50.1889C89.3137 50.1856 89.3095 50.1831 89.3048 50.1817C87.2682 49.6012 85.1985 49.1822 83.0958 48.9247C83.0639 48.9211 83.0463 48.9038 83.0427 48.8725C83.0224 48.7099 83.0348 48.5322 83.0189 48.3881C82.8674 46.9407 82.6611 45.5019 82.4001 44.0716C82.1296 42.5919 81.7397 41.0705 81.3844 39.5801C81.0667 38.2453 80.5263 36.6038 79.7632 34.6555C78.6547 31.8241 77.0883 29.0281 74.9791 26.8199C74.9731 26.8136 74.9689 26.8059 74.9668 26.7974C74.9647 26.789 74.9647 26.7802 74.9669 26.7718C74.9691 26.7634 74.9734 26.7557 74.9794 26.7495C74.9854 26.7432 74.9929 26.7385 75.0012 26.7359C75.4927 26.5798 75.9806 26.4569 76.465 26.3673C77.9077 26.1013 80.0071 26.7209 81.0812 27.7561C81.0856 27.7606 81.0914 27.7637 81.0977 27.7648C81.104 27.7659 81.1105 27.7649 81.1162 27.762C81.1219 27.7592 81.1266 27.7546 81.1295 27.7489C81.1324 27.7432 81.1335 27.7367 81.1325 27.7304C81.0741 27.2672 80.1318 26.2966 79.7729 25.9925C78.5654 24.968 76.7479 24.5021 75.2602 25.2199C75.1877 25.2553 75.15 25.2326 75.147 25.1519C75.086 23.5094 75.7976 21.9474 77.265 21.0723C79.7137 19.6111 82.5733 19.9877 85.182 20.9936C90.4602 23.0285 94.7722 28.0151 94.073 33.9899C93.9784 34.8014 93.784 35.5032 93.4472 36.2193C93.2768 36.5817 93.1142 36.9465 92.9592 37.3136C92.9563 37.3201 92.9513 37.3222 92.9442 37.3198L92.9212 37.311C92.9127 37.3077 92.9059 37.3011 92.9021 37.2927C92.8983 37.2843 92.8979 37.2747 92.9009 37.2659C94.1013 33.7715 92.5888 29.6955 90.2171 27.0984C89.1622 25.9439 87.9683 24.9471 86.6352 24.1079C86.5268 24.0395 86.4172 23.9785 86.3064 23.9249C86.2775 23.9108 86.2754 23.914 86.3002 23.9346C86.7793 24.333 87.2089 24.7862 87.589 25.2942C90.0394 28.5658 90.7952 32.7744 90.2595 36.762C90.2519 36.8215 90.2528 36.8713 90.2622 36.9114C90.2757 36.9692 90.2575 36.9821 90.2074 36.9503L87.8975 35.4944C87.8946 35.4926 87.8922 35.4929 87.8905 35.4953L87.8772 35.5139C87.869 35.525 87.8701 35.5351 87.8807 35.5439C88.707 36.2605 89.2886 36.7399 89.6257 36.9821C91.5908 38.3947 95.2142 40.6118 97.6708 39.2045C99.6704 38.0597 99.0153 35.7207 97.4021 34.6608C97.3585 34.6325 97.3614 34.6266 97.4109 34.6431C97.593 34.705 97.7848 34.7672 97.9864 34.8297C99.2988 35.2369 100.051 36.0982 100.243 37.4135C100.61 39.9311 98.431 41.9466 96.0885 42.2595C94.4443 42.4787 92.9672 42.1508 91.4688 41.4144C90.1375 40.7597 88.9784 40.0189 87.9912 39.1921C86.6659 38.0818 85.7825 37.3148 85.3411 36.8911C84.8219 36.3931 84.3248 35.9276 83.8498 35.4944C83.5805 35.2492 83.5575 35.2705 83.7809 35.558C83.8878 35.6951 84.0788 35.8772 84.2078 36.0425C85.8211 38.1154 87.0118 39.6226 88.4403 41.3181C89.8838 43.0303 91.4529 44.6241 93.1166 46.1985C95.3778 48.3377 97.8317 50.0721 100.82 50.9737C103.068 51.6518 105.512 51.6014 107.727 50.7298C107.961 50.6378 108.168 50.5226 108.348 50.3841C108.411 50.3352 108.416 50.3408 108.363 50.4009C106.129 52.9565 103.098 54.2692 99.7349 53.5249C95.8189 52.6577 92.7815 49.7344 90.3205 46.6688C89.418 45.5452 88.5013 44.45 87.6235 43.3132C87.5051 43.1603 87.3468 43.0056 87.2186 42.8411C87.2184 42.8408 87.218 42.8405 87.2176 42.8402C87.2173 42.8399 87.2169 42.8396 87.2165 42.8394C87.2161 42.8392 87.2158 42.8391 87.2156 42.8391C87.2153 42.8391 87.2152 42.8392 87.2151 42.8394C87.2186 42.8441 87.2195 42.8473 87.2178 42.8491C87.216 42.8509 87.2157 42.8526 87.2169 42.8544C87.4797 43.2375 87.785 43.7584 88.1327 44.4173C89.4115 46.8406 90.5286 49.1981 91.4838 51.49C91.8772 52.4358 92.29 53.5771 92.6905 54.621C93.5188 56.7753 94.2074 58.9755 94.7687 61.2146C95.1983 62.929 95.4735 64.6677 95.5944 66.431C95.6279 66.9195 95.6412 67.7446 95.6341 68.9061C95.6226 70.705 95.4467 72.4668 95.0949 74.2321C94.9031 75.1912 94.5238 76.1291 94.187 77.0458C93.7191 78.3193 93.0429 79.6079 92.1583 80.9114C91.6344 81.6834 91.2163 82.2515 90.904 82.6157C89.8167 83.8828 88.7818 84.9029 87.7994 85.6761C86.5719 86.6425 85.4943 87.4075 84.5667 87.9709C83.2381 88.7779 81.5329 89.6283 79.5307 90.4964C76.7355 91.7083 73.8193 92.5525 70.9534 93.5656C70.2168 93.826 69.4775 94.0786 68.7355 94.3231C65.4135 95.4181 62.2365 96.6698 59.2045 98.0783C55.985 99.5731 52.8549 101.482 50.1755 103.768C48.305 105.364 46.7589 107.213 45.2553 109.402C45.0811 109.656 44.945 109.923 44.8248 110.194C44.7806 110.295 44.767 110.292 44.7841 110.183C45.0146 108.751 45.3319 107.332 45.7362 105.927C46.3152 103.913 47.2982 101.962 48.4314 100.203C48.5646 99.9965 48.7535 99.734 48.9981 99.4157C49.2606 99.0745 49.5187 98.6971 49.7786 98.385C51.3698 96.4739 53.1757 94.7554 55.1921 93.2977C55.8056 92.8549 56.4138 92.4049 57.052 92.0009C58.8093 90.888 60.031 90.2188 61.9475 89.2712C63.9249 88.2926 65.9784 87.4325 68.0266 86.6131C68.1456 86.5653 68.2614 86.5123 68.374 86.454C68.4376 86.421 68.445 86.4307 68.3961 86.4831C67.3742 87.5749 66.431 88.7072 65.3508 89.7486C63.9285 91.1214 62.8129 92.1494 61.2801 93.2341C60.0773 94.0862 58.8827 94.891 57.6964 95.6482C57.5703 95.729 57.5765 95.741 57.715 95.6845C58.7616 95.2596 59.8191 94.8229 60.8876 94.3744C64.6498 92.7947 68.2582 90.7298 71.589 88.3802C72.5579 87.6968 73.5965 86.8721 74.5945 86.1101C76.7426 84.4712 78.7263 82.5486 80.5322 80.5437C81.3013 79.6898 82.0456 78.6953 82.7802 77.7539C83.079 77.3708 83.3595 76.9845 83.6217 76.595C84.3749 75.4767 85.1219 74.3611 85.6929 73.1368C86.3364 71.7578 86.9187 70.3535 87.4396 68.9238C87.6088 68.46 87.777 67.9965 87.9444 67.5333C87.9509 67.5156 87.9456 67.5029 87.9285 67.4953L87.9073 67.4856C87.9037 67.4844 87.9008 67.4856 87.8984 67.4891C87.3822 68.4394 86.8907 69.4047 86.2799 70.301C85.3314 71.6924 84.3528 73.1262 83.2381 74.3841C80.364 77.6277 76.9934 80.2511 73.1263 82.2542C71.2284 83.2381 69.3013 84.0867 66.8845 85.0175C65.3225 85.6186 63.7897 86.2763 62.2392 86.8968C57.7954 88.6745 53.3649 90.6935 49.8873 94.0862C49.0228 94.9295 48.2493 95.7525 47.5466 96.6904C47.1977 97.156 46.8606 97.6295 46.5353 98.111C44.7382 100.771 43.5802 104.087 43.368 107.183C43.2678 108.652 43.3055 110.103 43.4811 111.534C43.49 111.605 43.4794 111.608 43.4493 111.544C41.1757 106.653 39.5837 100.973 40.4853 95.5581C40.4959 95.4918 40.5278 95.4096 40.5914 95.3609C41.476 94.6862 42.3464 94.2 43.2027 93.9024C44.267 93.5329 45.5859 93.349 46.6723 93.7379C46.6791 93.7403 46.6863 93.7409 46.6934 93.7397C46.7004 93.7385 46.707 93.7355 46.7125 93.7311C46.718 93.7266 46.7223 93.7208 46.7248 93.7143C46.7274 93.7078 46.7282 93.7007 46.7271 93.6937C46.6965 93.4775 46.6431 93.2806 46.5671 93.1032C45.4834 90.5768 43.1355 89.2977 40.442 90.2904C40.2281 90.3694 40.0431 90.4625 39.8869 90.5698C39.8168 90.6187 39.8061 90.6081 39.8551 90.5379C40.686 89.3481 41.4922 88.2758 42.682 87.4131C45.1377 85.6319 48.2564 86.3638 49.2305 89.326C49.4751 90.0703 49.5111 90.8249 49.3384 91.5899C49.3366 91.5987 49.3384 91.5996 49.3437 91.5925C50.4275 90.0526 51.4149 88.4226 52.1786 86.6997C52.6286 85.6831 53.0502 84.4491 53.8988 83.6862C54.682 82.9817 55.8241 82.7333 56.6197 81.9925C57.8847 80.8142 58.134 78.7863 58.1022 77.1713C58.0712 75.5872 57.6319 69.2049 55.6031 68.7992C54.9967 68.6781 54.3081 69.0767 53.8034 69.3879C52.5257 70.1746 51.2219 70.916 49.8918 71.612C49.2818 71.9311 48.6073 72.252 47.9329 72.4005C47.3309 72.5331 46.7324 72.3625 46.3788 71.8498C46.2946 71.7278 46.2141 71.5186 46.1375 71.2221C45.8873 70.2462 45.4904 69.5143 44.6781 68.8699C44.1978 68.4892 43.736 68.1851 43.2929 67.9576C43.0321 67.8241 43.1028 67.2398 43.1558 66.8411C43.1606 66.8093 43.1514 66.7825 43.1284 66.7607C42.9861 66.6184 42.7766 66.6175 42.6431 66.5715C42.2091 66.4186 41.7927 66.3337 41.4621 65.9501C41.444 65.9286 41.4351 65.9009 41.4374 65.8732C41.4881 65.3452 41.3234 64.8772 40.9432 64.4694C40.2334 63.7083 39.4776 63.2867 38.6511 62.7448C38.3364 62.5391 38.1018 62.2663 37.9474 61.9262C37.9401 61.9101 37.9389 61.8918 37.9441 61.8749C37.9493 61.858 37.9606 61.8435 37.9757 61.8343C39.3441 60.9901 40.5172 60.0602 40.9362 58.4389C41.25 57.2217 41.0555 55.7958 40.7558 54.5194C40.6657 54.1366 40.64 53.913 40.3245 53.6531C38.4098 52.0743 37.0962 50.1667 36.0831 47.9152C35.9328 47.581 35.8232 47.2713 35.7543 46.9861C35.7496 46.9684 35.7425 46.9575 35.7331 46.9534C35.726 46.9505 35.7183 46.9499 35.7101 46.9516C35.7046 46.9529 35.6997 46.956 35.6963 46.9603C35.6929 46.9647 35.6912 46.9701 35.6915 46.9755C35.7675 49.425 36.0743 51.6102 36.9866 53.8405C37.5063 55.1099 38.1569 56.115 38.9826 57.1501C39.2154 57.4424 39.472 57.6867 39.7525 57.8829C39.8191 57.9301 39.8132 57.9421 39.7348 57.9192C38.6979 57.616 37.7079 57.1289 36.7682 56.5799C34.583 55.3043 32.9141 53.143 32.0575 50.7899C31.4679 49.1731 31.1231 47.353 31.1532 45.6124C31.1832 43.8144 31.5147 42.1163 32.0265 40.3969C32.1244 40.0687 32.2313 39.8011 32.3474 39.5943C32.4653 39.3851 32.4352 39.3612 32.2573 39.5227C31.4811 40.2263 30.7751 41.0316 30.1393 41.9386C28.4827 44.2988 28.1998 47.0542 28.7488 49.8299C28.8142 50.1578 28.9264 50.4769 29.0369 50.7952C29.0375 50.7975 29.0369 50.799 29.0352 50.7996L29.0139 50.8084C29.0004 50.8143 28.9904 50.8105 28.9839 50.7969C28.2599 49.4047 27.8206 47.8524 27.6455 46.2966C27.2557 42.8358 28.5888 39.6951 30.8067 37.1147C32.2281 35.4599 33.7883 33.9651 35.299 32.3961C35.5059 32.1815 35.7266 31.9364 35.9611 31.6606C37.3543 30.0279 38.4433 28.6922 39.9576 27.3821C41.5782 25.9796 43.2705 24.8059 45.0343 23.8613C45.6631 23.5242 46.5391 23.1208 47.6624 22.6511C49.4875 21.8885 51.3978 21.3257 53.3932 20.9627C55.4467 20.5896 57.5002 20.5552 59.5581 20.6604C60.6943 20.7187 62.0344 20.9415 63.5784 21.3287C66.8562 22.1508 69.8935 23.7852 72.4686 25.9634C72.6471 26.1148 72.8157 26.2751 72.9742 26.4442C72.9937 26.4649 72.9942 26.4861 72.976 26.5079C71.7985 27.9152 70.378 29.1192 68.7656 29.9961C66.9198 30.9985 65.1068 31.5262 62.9711 31.9108C62.944 31.9155 62.9443 31.9193 62.972 31.9222ZM42.8792 48.1963C42.8793 48.193 42.8804 48.1898 42.8822 48.187C42.8841 48.1843 42.8866 48.1821 42.8896 48.1806C42.8926 48.1792 42.8959 48.1786 42.8992 48.1788C42.9025 48.1791 42.9056 48.1802 42.9083 48.1821C43.5725 48.676 44.2649 49.1245 44.9857 49.5276C45.7229 49.9395 46.2365 50.0853 47.1399 50.3373C47.5489 50.4516 47.9659 50.5152 48.3908 50.5282C48.4073 50.5282 48.4087 50.5235 48.3952 50.5141C48.3881 50.5094 48.3802 50.5061 48.3713 50.5044C48.3495 50.5002 48.336 50.497 48.3307 50.4946C45.2712 49.1298 42.6034 46.6617 41.4321 43.4882C41.0741 42.5194 40.8221 41.6221 40.6993 40.6029C40.6981 40.597 40.6945 40.5938 40.6887 40.5932C40.6792 40.592 40.6713 40.5926 40.6648 40.595C40.6583 40.5973 40.6542 40.6053 40.6524 40.6188C40.4792 42.2613 40.4615 44.0009 40.5508 45.6495C40.6409 47.3091 40.8121 48.9609 41.0643 50.6051C41.1964 51.4661 41.3879 52.3035 41.6389 53.1174C41.6607 53.1887 41.6843 53.1893 41.7097 53.1192C42.286 51.528 42.8447 49.9147 42.8792 48.1963ZM43.9682 57.0847C44.435 57.0428 44.8946 56.9612 45.3472 56.8398C47.3044 56.3156 48.6029 54.8022 49.5408 53.0953C49.5815 53.0216 49.5662 53.0075 49.4949 53.0529C48.153 53.9094 46.7068 54.812 45.1625 55.2858C45.1345 55.2943 45.1107 55.3125 45.0953 55.3371C44.6798 55.9983 44.511 56.6604 43.7402 57.0051C43.627 57.0558 43.6335 57.0859 43.7596 57.0953C43.792 57.0982 43.8616 57.0947 43.9682 57.0847ZM87.3053 80.0071C87.3619 79.909 87.4644 79.8091 87.5095 79.7295C88.8699 77.3419 89.7115 74.4548 89.7468 71.6915C89.7504 71.3821 89.7787 71.0895 89.8069 70.8093C89.8223 70.6543 89.8025 70.6499 89.7477 70.7961C88.9433 72.9344 87.9974 74.9384 86.7669 76.8672C86.1523 77.8314 85.7268 78.4737 85.4905 78.7943C83.0613 82.1004 80.1689 85.2686 76.8469 87.696C76.1256 88.2228 75.3887 88.755 74.6361 89.2924C74.5648 89.3431 74.5695 89.3514 74.6502 89.3172C75.6839 88.8805 76.7429 88.4391 77.8273 87.993C78.7867 87.5981 80.0319 86.9472 81.563 86.0403C82.5035 85.4825 83.4732 84.9123 84.3431 84.3112C86.0315 83.1444 87.4317 81.9218 88.8372 80.6745C90.142 79.5174 91.2805 78.1923 92.2732 76.7576C94.1349 74.0686 95.0675 70.7855 94.904 67.5024C94.848 66.3697 94.8008 65.5502 94.7625 65.044C94.7625 65.0405 94.7605 65.0387 94.7563 65.0387C94.754 65.0387 94.7516 65.0387 94.7493 65.0387C94.7404 65.0387 94.7351 65.0431 94.7334 65.052C94.7145 65.1651 94.7006 65.3375 94.6918 65.5691C94.6653 66.2657 94.5168 67.2327 94.3338 67.9921C93.6293 70.9145 92.4103 73.6363 90.7015 76.1079C90.1399 76.92 89.725 77.4801 89.4569 77.7883C88.7603 78.5898 88.2217 79.1635 87.841 79.5094C87.6164 79.7139 87.4426 79.8831 87.3194 80.0168C87.2846 80.054 87.2799 80.0507 87.3053 80.0071Z" fill="white"/>
<path d="M77.5594 41.4587C77.3402 43.2293 76.6887 44.8531 75.8357 46.469C75.4388 47.2195 74.8836 47.8905 74.3223 48.5393C74.2982 48.5676 74.2675 48.5818 74.2304 48.5818C72.341 48.5747 70.4599 48.6395 68.5871 48.7762C67.3531 48.8658 66.1187 48.9471 64.8841 49.0202C64.7751 49.0267 64.6779 49.0211 64.5924 49.0034C64.5869 49.0025 64.582 48.9999 64.5781 48.9959C64.5743 48.9919 64.5718 48.9868 64.5711 48.9813C64.5703 48.9758 64.5712 48.9701 64.5738 48.965C64.5764 48.9599 64.5804 48.9558 64.5853 48.953C66.8492 47.7747 68.9919 46.1977 70.6715 44.2618C71.7894 42.9735 72.6955 41.7436 73.3897 40.572C73.7009 40.0458 74.1055 39.2237 74.6034 38.1057C75.4989 36.0973 76.0912 33.9572 76.1619 31.7508C76.1642 31.6766 76.179 31.6742 76.2061 31.7437C76.3245 32.0455 76.4459 32.3696 76.5703 32.7161C77.532 35.3893 77.9201 38.5336 77.5594 41.4587Z" fill="white"/>
<path d="M74.1915 51.7136C74.4143 51.6541 74.4105 51.6293 74.18 51.6394C73.0804 51.688 71.9321 51.7419 70.8642 51.8612C68.5712 52.1176 66.3719 52.7116 64.1389 53.1872C64.1342 53.1882 64.1294 53.1878 64.1249 53.1862C64.1204 53.1845 64.1165 53.1816 64.1135 53.1779C64.1106 53.1741 64.1088 53.1696 64.1082 53.1648C64.1077 53.1601 64.1086 53.1553 64.1106 53.151L65.1228 51.0966C65.1358 51.0701 65.1555 51.05 65.182 51.0365C65.2445 51.0035 65.3105 50.9805 65.38 50.9675C66.307 50.7907 67.2396 50.6511 68.1778 50.5485C70.6306 50.2786 73.0907 50.1319 75.5582 50.1083C77.9797 50.0847 79.5708 50.0986 80.3316 50.1499C81.868 50.2524 83.4247 50.4601 84.9787 50.6025C84.9817 50.603 84.9831 50.6022 84.9831 50.5998C84.9831 50.5992 84.9831 50.5986 84.9831 50.598C84.9831 50.5963 84.9823 50.5957 84.9805 50.5963C83.0437 51.2805 81.0857 51.8842 79.14 52.5375C75.0852 53.8997 72.1734 54.8031 68.9036 55.7074C67.3519 56.137 65.7796 56.4635 64.1867 56.6869C63.803 56.7408 63.4185 56.7408 63.0419 56.732C62.9565 56.7296 62.9479 56.7028 63.0163 56.6515C63.2143 56.5024 63.4362 56.3657 63.6819 56.2413C65.9154 55.1104 68.1796 54.0453 70.4744 53.0458C70.8209 52.8949 71.2004 52.7452 71.613 52.5967C72.4775 52.2864 73.3385 51.9417 74.1915 51.7136Z" fill="white"/>
<path d="M98.3055 82.5662C99.3186 81.3843 100.111 79.9567 100.622 78.4531C101.762 75.1093 101.828 71.7431 100.823 68.3545C100.292 66.5662 99.605 64.8442 98.7166 63.2035C97.5294 61.0122 96.2777 58.9958 95.0392 56.6948C94.5106 55.7145 94.0262 54.6661 93.5365 53.6495C93.4752 53.521 93.4917 53.5098 93.586 53.6159C95.742 56.0345 97.9537 58.6139 99.6059 60.9715C100.755 62.6104 101.65 64.307 102.291 66.0614C103.285 68.7779 103.598 71.9293 102.949 74.7952C102.768 75.5984 102.417 76.5926 101.898 77.7777C101.079 79.65 99.818 81.1934 98.3285 82.5715C98.3232 82.5762 98.3161 82.5771 98.3073 82.5742C98.3032 82.5724 98.3026 82.5697 98.3055 82.5662Z" fill="white"/>
<path d="M70.8279 58.818C70.362 59.1009 69.7529 59.3731 69.1934 59.4023C68.0654 59.4607 67.078 59.2803 66.1596 58.5899C66.034 58.4956 65.9059 58.407 65.775 58.3239C65.7728 58.3225 65.771 58.3206 65.7699 58.3182C65.7689 58.3159 65.7685 58.3132 65.769 58.3106C65.7695 58.3079 65.7707 58.3054 65.7726 58.3034C65.7744 58.3014 65.7768 58.2999 65.7795 58.2991C68.1034 57.7024 70.4212 57.066 72.6692 56.2253C72.6963 56.2147 72.7045 56.2229 72.6939 56.2501C72.5454 56.6184 72.3374 57.0003 72.0698 57.3957C71.8718 57.688 71.4322 58.3754 70.751 59.458C70.5895 59.7161 70.2715 60.1245 69.7971 60.6832C69.7459 60.7442 69.684 60.761 69.623 60.7999C69.6095 60.8087 69.5988 60.8212 69.5922 60.8359C69.5856 60.8506 69.5834 60.8669 69.5858 60.8829C69.5882 60.8988 69.5952 60.9137 69.6059 60.9258C69.6165 60.9379 69.6305 60.9467 69.646 60.951C70.0337 61.0601 70.3797 61.2407 70.6838 61.4929C71.7528 62.3804 72.536 63.4763 73.0334 64.7804C73.0357 64.7875 73.0343 64.7884 73.029 64.7831C71.3848 63.1539 69.0369 62.2841 66.7501 62.5263C66.7206 62.5292 66.7065 62.516 66.7076 62.4865C66.7448 61.7976 66.6708 61.1205 66.4858 60.4551C66.4751 60.418 66.4887 60.4042 66.5264 60.4136C68.1193 60.8344 69.813 60.0211 70.8429 58.8357C70.8753 58.798 70.8703 58.7921 70.8279 58.818Z" fill="white"/>
<path d="M72.0566 97.4302C72.4367 96.5781 72.9565 95.7984 73.4427 95.0152C73.4704 94.971 73.509 94.9418 73.5585 94.9277C75.7003 94.2983 77.882 93.5213 79.8762 92.4994C79.9387 92.4676 79.9467 92.4779 79.9001 92.5303C79.1605 93.3666 78.4333 94.2117 77.7185 95.0656C76.1079 96.9874 74.2161 99.207 74.2029 101.723C74.1985 102.72 74.6254 103.846 75.5722 104.309C75.7498 104.397 75.9523 104.388 76.1556 104.43C76.1945 104.438 76.1948 104.447 76.1565 104.457C73.9271 105.026 72.1432 103.778 71.581 101.658C71.2124 100.27 71.4802 98.7235 72.0566 97.4302Z" fill="white"/>
</g>
<defs>
<clipPath id="clip0_118_38">
<rect width="128" height="128" rx="32" fill="white"/>
</clipPath>
</defs>
</svg>
