<svg width="128" height="128" viewBox="0 0 128 128" fill="none" xmlns="http://www.w3.org/2000/svg">
<rect width="128" height="128" rx="32" fill="#101010"/>
<path fill-rule="evenodd" clip-rule="evenodd" d="M32.2341 63.3961C49.1437 56.0525 60.4007 51.1729 66.0533 48.8055C82.1416 42.09 85.5235 40.9305 87.6976 40.8821C88.1807 40.8821 89.2436 40.9788 89.9683 41.5585C90.5481 42.0417 90.693 42.6697 90.7897 43.1529C90.8863 43.636 90.9829 44.6506 90.8863 45.4236C90.0166 54.6031 86.2482 76.8755 84.3157 87.1179C83.4944 91.4661 81.9 92.9155 80.354 93.0604C76.9721 93.3503 74.4115 90.838 71.1745 88.7122C66.0533 85.3786 63.2028 83.3011 58.2266 80.0158C52.4773 76.2474 56.1974 74.1699 59.4827 70.788C60.3523 69.9184 75.1845 56.3907 75.4744 55.1829C75.5227 55.0379 75.5227 54.4581 75.1845 54.1683C74.8463 53.8784 74.3632 53.975 73.9767 54.0716C73.4452 54.1683 65.3286 59.5793 49.5302 70.2566C47.2111 71.8509 45.1337 72.6239 43.2495 72.5756C41.172 72.5273 37.2103 71.4161 34.2149 70.4498C30.5914 69.2903 27.6926 68.6622 27.9342 66.6331C28.0791 65.5702 29.5285 64.5073 32.2341 63.3961Z" fill="white"/>
</svg>
